<svg width="21" height="24" viewBox="0 0 21 24" fill="none" xmlns="http://www.w3.org/2000/svg">
<path d="M15.5637 8.66103C17.0959 9.7683 18.9729 10.4198 21.0002 10.4198V6.47611C20.6165 6.47626 20.2338 6.43577 19.8584 6.35531V9.45955C17.8314 9.45955 15.9545 8.80814 14.422 7.70095V15.749C14.422 19.775 11.1936 23.0385 7.21142 23.0385C5.72557 23.0385 4.34448 22.5844 3.19727 21.8055C4.50666 23.1591 6.33269 23.9987 8.35281 23.9987C12.3353 23.9987 15.5638 20.7352 15.5638 16.7089V8.66103H15.5637ZM16.9721 4.68233C16.1891 3.81751 15.6749 2.69987 15.5637 1.46424V0.957031H14.4817C14.7541 2.52745 15.6831 3.86912 16.9721 4.68233ZM5.71597 18.7161C5.27845 18.1363 5.04195 17.4268 5.04307 16.6974C5.04307 14.8561 6.51972 13.3631 8.34157 13.3631C8.68104 13.3629 9.01851 13.4156 9.34211 13.5193V9.48743C8.96395 9.43508 8.58233 9.41276 8.20088 9.42097V12.5592C7.87712 12.4554 7.53948 12.4027 7.19985 12.403C5.37808 12.403 3.90151 13.8958 3.90151 15.7374C3.90151 17.0396 4.63955 18.1669 5.71597 18.7161Z" fill="#FF004F"/>
<path d="M14.4224 7.70087C15.955 8.80805 17.8316 9.45947 19.8588 9.45947V6.35522C18.7273 6.11153 17.7256 5.5138 16.9724 4.68233C15.6833 3.86903 14.7545 2.52737 14.4821 0.957031H11.6403V16.7088C11.6338 18.5451 10.1597 20.032 8.34178 20.032C7.27061 20.032 6.31888 19.5158 5.71619 18.716C4.63993 18.1669 3.9018 17.0395 3.9018 15.7375C3.9018 13.8961 5.37838 12.4031 7.20014 12.4031C7.54919 12.4031 7.8856 12.458 8.20118 12.5592V9.42105C4.28891 9.50278 1.14258 12.7344 1.14258 16.7089C1.14258 18.6929 1.92607 20.4915 3.19772 21.8057C4.34494 22.5844 5.72595 23.0387 7.21187 23.0387C11.1941 23.0387 14.4225 19.7749 14.4225 15.749L14.4224 7.70087Z" fill="white"/>
<path d="M19.8579 6.35818V5.519C18.8375 5.52049 17.8373 5.23162 16.9715 4.68537C17.7378 5.53353 18.747 6.11842 19.8579 6.35835M14.4811 0.959992C14.4552 0.809942 14.4352 0.658891 14.4214 0.507211V0H10.4975V15.7519C10.4912 17.5881 9.01711 19.075 7.19912 19.075C6.68374 19.0757 6.1754 18.9539 5.71516 18.7193C6.31785 19.5189 7.26959 20.035 8.34076 20.035C10.1586 20.035 11.6329 18.5483 11.6393 16.7119V0.960075L14.4811 0.959992ZM8.20041 9.42402V8.53048C7.87251 8.48521 7.54195 8.46253 7.21102 8.46261C3.22837 8.46261 0 11.7263 0 15.7519C0 18.2759 1.26879 20.5002 3.19687 21.8086C1.92521 20.4945 1.14172 18.6958 1.14172 16.7118C1.14172 12.7374 4.28797 9.50574 8.20041 9.42402Z" fill="#00F2EA"/>
</svg>
